Title:
Strangers Aka Zarim

Country:
Israel/2007

Language:
English, French, Hebrew, Arabic, German

Subtitle:
English

Directors:
Guy Nattiv, Erez Tadmor

Writers:
Guy Nattiv, Erez Tadmor

Stars:
Liron Levo, Lubna Azabal, Abdallah El Akal 

Synopsis:
Six days in the lives of an Israeli living in a kibbutz and a Palestinian living in Paris, which starts with an accidental meeting in the Berlin Subway during the World cup finals, will change them completely. 

Trivia:
* Official Selection Sundance Film Festival 2008

* Official Selection São Paulo International Film Festival 2008

Imdb: 
http://www.imdb.com/title/tt1064215

Trailer:

Media Info:

General
Complete name                            : Strangers.[Zarim].2007.DVDRip.AC3.HORiZON-ArtSubs
Format                                   : AVI
Format/Info                              : Audio Video Interleave
File size                                : 1.09 GiB
Duration                                 : 1h 20mn
Overall bit rate                         : 1 942 Kbps

Video
ID                                       : 0
Format                                   : MPEG-4 Visual
Format profile                           : Advanced Simple@L5
Format settings, BVOP                    : 1
Format settings, QPel                    : No
Format settings, GMC                     : No warppoints
Format settings, Matrix                  : Custom
Codec ID                                 : XVID
Codec ID/Hint                            : XviD
Duration                                 : 1h 20mn
Bit rate                                 : 1 679 Kbps
Width                                    : 720 pixels
Height                                   : 320 pixels
Display aspect ratio                     : 2.25:1
Frame rate                               : 25.000 fps
Color space                              : YUV
Chroma subsampling                       : 4:2:0
Bit depth                                : 8 bits
Scan type                                : Progressive
Compression mode                         : Lossy
Bits/(Pixel*Frame)                       : 0.291
Stream size                              : 968 MiB (86%)
Writing library                          : XviD 1.2.1 (UTC 2008-12-04)

Audio
ID                                       : 1
Format                                   : AC-3
Format/Info                              : Audio Coding 3
Mode extension                           : CM (complete main)
Format settings, Endianness              : Big
Codec ID                                 : 2000
Duration                                 : 1h 20mn
Bit rate mode                            : Constant
Bit rate                                 : 256 Kbps
Channel(s)                               : 2 channels
Channel positions                        : Front: L R
Sampling rate                            : 48.0 KHz
Bit depth                                : 16 bits
Compression mode                         : Lossy
Stream size                              : 148 MiB (13%)
Alignment                                : Split accross interleaves
Interleave, duration                     : 96 ms (2.40 video frames)
Interleave, preload duration             : 96 ms
Language                                 : English

